<svg width="55" height="55" viewBox="0 0 55 55" fill="none" xmlns="http://www.w3.org/2000/svg">
<path d="M20.0521 54.5833L18.9688 45.9166C18.3819 45.6909 17.829 45.4201 17.3099 45.1041C16.7908 44.7882 16.283 44.4496 15.7865 44.0885L7.72917 47.4739L0.28125 34.6093L7.25521 29.3281C7.21007 29.0121 7.1875 28.7074 7.1875 28.414V26.5859C7.1875 26.2925 7.21007 25.9878 7.25521 25.6718L0.28125 20.3906L7.72917 7.526L15.7865 10.9114C16.283 10.5503 16.8021 10.2118 17.3438 9.89579C17.8854 9.57982 18.4271 9.30899 18.9688 9.08329L20.0521 0.416626H34.9479L36.0312 9.08329C36.6181 9.30899 37.171 9.57982 37.6901 9.89579C38.2092 10.2118 38.717 10.5503 39.2135 10.9114L47.2708 7.526L54.7188 20.3906L47.7448 25.6718C47.7899 25.9878 47.8125 26.2925 47.8125 26.5859V28.414C47.8125 28.7074 47.7674 29.0121 47.6771 29.3281L54.651 34.6093L47.2031 47.4739L39.2135 44.0885C38.717 44.4496 38.1979 44.7882 37.6562 45.1041C37.1146 45.4201 36.5729 45.6909 36.0312 45.9166L34.9479 54.5833H20.0521ZM24.7917 49.1666H30.1406L31.0885 41.9895C32.4878 41.6284 33.7856 41.098 34.9818 40.3984C36.178 39.6987 37.2726 38.8524 38.2656 37.8593L44.9688 40.6354L47.6094 36.0312L41.7865 31.6302C42.0121 30.9982 42.1701 30.3324 42.2604 29.6328C42.3507 28.9331 42.3958 28.2222 42.3958 27.5C42.3958 26.7777 42.3507 26.0668 42.2604 25.3671C42.1701 24.6675 42.0121 24.0017 41.7865 23.3698L47.6094 18.9687L44.9688 14.3645L38.2656 17.2083C37.2726 16.1701 36.178 15.3012 34.9818 14.6015C33.7856 13.9019 32.4878 13.3715 31.0885 13.0104L30.2083 5.83329H24.8594L23.9115 13.0104C22.5122 13.3715 21.2144 13.9019 20.0182 14.6015C18.822 15.3012 17.7274 16.1475 16.7344 17.1406L10.0312 14.3645L7.39062 18.9687L13.2135 23.302C12.9878 23.9791 12.8299 24.6562 12.7396 25.3333C12.6493 26.0104 12.6042 26.7326 12.6042 27.5C12.6042 28.2222 12.6493 28.9218 12.7396 29.5989C12.8299 30.276 12.9878 30.9531 13.2135 31.6302L7.39062 36.0312L10.0312 40.6354L16.7344 37.7916C17.7274 38.8298 18.822 39.6987 20.0182 40.3984C21.2144 41.098 22.5122 41.6284 23.9115 41.9895L24.7917 49.1666ZM27.6354 36.9791C30.2535 36.9791 32.4878 36.0538 34.3385 34.2031C36.1892 32.3524 37.1146 30.118 37.1146 27.5C37.1146 24.8819 36.1892 22.6475 34.3385 20.7968C32.4878 18.9461 30.2535 18.0208 27.6354 18.0208C24.9722 18.0208 22.7266 18.9461 20.8984 20.7968C19.0703 22.6475 18.1562 24.8819 18.1562 27.5C18.1562 30.118 19.0703 32.3524 20.8984 34.2031C22.7266 36.0538 24.9722 36.9791 27.6354 36.9791Z" fill="white"/>
</svg>
