<svg width="65" height="65" viewBox="0 0 65 65" fill="none" xmlns="http://www.w3.org/2000/svg">
<rect width="65" height="65" rx="32.5" fill="white"/>
<path fill-rule="evenodd" clip-rule="evenodd" d="M42.2504 26C42.2504 31.3848 37.8852 35.75 32.5004 35.75C27.1156 35.75 22.7504 31.3848 22.7504 26C22.7504 20.6152 27.1156 16.25 32.5004 16.25C37.8852 16.25 42.2504 20.6152 42.2504 26ZM39.0004 26C39.0004 29.5899 36.0902 32.5 32.5004 32.5C28.9105 32.5 26.0004 29.5899 26.0004 26C26.0004 22.4101 28.9105 19.5 32.5004 19.5C36.0902 19.5 39.0004 22.4101 39.0004 26Z" fill="#87CEEB"/>
<path d="M32.5004 40.625C21.9795 40.625 13.0155 46.8462 9.60083 55.5621C10.4327 56.3881 11.3089 57.1694 12.2257 57.9021C14.7684 49.9 22.7451 43.875 32.5004 43.875C42.2557 43.875 50.2324 49.9 52.7751 57.9021C53.6919 57.1694 54.5681 56.3881 55.4 55.5621C51.9853 46.8462 43.0213 40.625 32.5004 40.625Z" fill="#87CEEB"/>
</svg>
