<svg width="49" height="55" viewBox="0 0 49 55" fill="none" xmlns="http://www.w3.org/2000/svg">
<path d="M16.375 39.6875C14.4792 39.6875 12.8767 39.0329 11.5677 37.7239C10.2587 36.4149 9.60417 34.8125 9.60417 32.9166C9.60417 31.0208 10.2587 29.4184 11.5677 28.1093C12.8767 26.8003 14.4792 26.1458 16.375 26.1458C18.2708 26.1458 19.8733 26.8003 21.1823 28.1093C22.4913 29.4184 23.1458 31.0208 23.1458 32.9166C23.1458 34.8125 22.4913 36.4149 21.1823 37.7239C19.8733 39.0329 18.2708 39.6875 16.375 39.6875ZM5.54167 54.5833C4.05208 54.5833 2.77691 54.0529 1.71615 52.9921C0.655382 51.9314 0.125 50.6562 0.125 49.1666V11.25C0.125 9.76038 0.655382 8.4852 1.71615 7.42444C2.77691 6.36367 4.05208 5.83329 5.54167 5.83329H8.25V0.416626H13.6667V5.83329H35.3333V0.416626H40.75V5.83329H43.4583C44.9479 5.83329 46.2231 6.36367 47.2839 7.42444C48.3446 8.4852 48.875 9.76038 48.875 11.25V49.1666C48.875 50.6562 48.3446 51.9314 47.2839 52.9921C46.2231 54.0529 44.9479 54.5833 43.4583 54.5833H5.54167ZM5.54167 49.1666H43.4583V22.0833H5.54167V49.1666Z" fill="white"/>
</svg>
